<svg height="512" viewBox="0 0 128 128" width="512" style="width: 40px; height: 40px;" xmlns="http://www.w3.org/2000/svg"><g><path d="m89.25 39.417a5.426 5.426 0 1 0 5.426 5.425 5.432 5.432 0 0 0 -5.426-5.425zm0 7.351a1.926 1.926 0 1 1 1.926-1.926 1.928 1.928 0 0 1 -1.926 1.926z"/><path d="m77.741 55.219a7.516 7.516 0 0 0 -1.836.236 6.059 6.059 0 0 0 -5.8-4.33h-2.8v-8.75a1.751 1.751 0 0 0 -1.75-1.75h-4.689v-5.25h4.693a1.751 1.751 0 0 0 1.75-1.75v-2.155h6.421l2.834 2.575a1.75 1.75 0 0 0 2.354-2.59l-3.334-3.03a1.747 1.747 0 0 0 -1.177-.455h-7.1v-2.155a1.751 1.751 0 0 0 -1.75-1.75h-21.633a1.75 1.75 0 0 0 -1.75 1.75v7.81a1.75 1.75 0 0 0 1.75 1.75h4.692v5.25h-4.692a1.75 1.75 0 0 0 -1.75 1.75v8.75h-2.8a6.058 6.058 0 0 0 -6.051 6.051v40.708a6.059 6.059 0 0 0 6.051 6.051h30.733a6.058 6.058 0 0 0 6.05-6.051v-27.828a7.5 7.5 0 1 0 1.584-14.837zm-32.067-27.654h18.135v4.31h-18.135zm6.442 7.81h5.25v5.25h-5.25zm-6.442 8.75h18.135v7h-18.135zm-8.85 21.575h16.167v23.663h-16.167zm35.833 32.184a2.553 2.553 0 0 1 -2.55 2.551h-30.732a2.554 2.554 0 0 1 -2.551-2.551v-5.021h17.917a1.749 1.749 0 0 0 1.75-1.75v-27.167a1.75 1.75 0 0 0 -1.75-1.75h-17.917v-5.02a2.554 2.554 0 0 1 2.551-2.551h30.732a2.553 2.553 0 0 1 2.55 2.551v.043a7.468 7.468 0 0 0 0 11.009zm5.084-31.156a4 4 0 1 1 4-4 4.01 4.01 0 0 1 -4 4z"/><path d="m75.566 38.868a4.746 4.746 0 1 0 4.746 4.745 4.751 4.751 0 0 0 -4.746-4.745zm0 5.991a1.246 1.246 0 1 1 1.246-1.246 1.247 1.247 0 0 1 -1.246 1.246z"/></g></svg>